<?xml version="1.0" encoding="UTF-8"?>
<svg xmlns="http://www.w3.org/2000/svg" xmlns:xlink="http://www.w3.org/1999/xlink" width="162pt" height="276pt" viewBox="0 0 162 276" version="1.1">
<g id="surface2696">
<rect x="0" y="0" width="162" height="276" style="fill:rgb(100%,100%,100%);fill-opacity:1;stroke:none;"/>
<path style="fill-rule:evenodd;fill:rgb(100%,100%,100%);fill-opacity:1;stroke-width:0.1;stroke-linecap:butt;stroke-linejoin:miter;stroke:rgb(0%,0%,0%);stroke-opacity:1;stroke-miterlimit:10;" d="M 7.65 2.6 L 15.6 2.6 L 15.6 14.05 L 7.65 14.05 Z " transform="matrix(20,0,0,20,-152,-6)"/>
<path style="fill-rule:evenodd;fill:rgb(100%,100%,100%);fill-opacity:1;stroke-width:0.1;stroke-linecap:butt;stroke-linejoin:miter;stroke:rgb(0%,0%,0%);stroke-opacity:1;stroke-miterlimit:10;" d="M 9.3 0.35 L 14.15 0.35 L 14.15 2.55 L 9.3 2.55 Z " transform="matrix(20,0,0,20,-152,-6)"/>
<path style="fill-rule:evenodd;fill:rgb(0%,100%,0%);fill-opacity:1;stroke-width:0.1;stroke-linecap:butt;stroke-linejoin:miter;stroke:rgb(0%,0%,0%);stroke-opacity:1;stroke-miterlimit:10;" d="M 7.7 12.85 L 15.65 12.85 L 15.65 14.05 L 7.7 14.05 Z " transform="matrix(20,0,0,20,-152,-6)"/>
<path style="fill-rule:evenodd;fill:rgb(0%,100%,0%);fill-opacity:1;stroke-width:0.1;stroke-linecap:butt;stroke-linejoin:miter;stroke:rgb(0%,0%,0%);stroke-opacity:1;stroke-miterlimit:10;" d="M 7.690039 11.530078 L 15.640039 11.530078 L 15.640039 12.730078 L 7.690039 12.730078 Z " transform="matrix(20,0,0,20,-152,-6)"/>
<path style="fill-rule:evenodd;fill:rgb(0%,100%,0%);fill-opacity:1;stroke-width:0.1;stroke-linecap:butt;stroke-linejoin:miter;stroke:rgb(0%,0%,0%);stroke-opacity:1;stroke-miterlimit:10;" d="M 7.659961 10.269922 L 15.609961 10.269922 L 15.609961 11.469922 L 7.659961 11.469922 Z " transform="matrix(20,0,0,20,-152,-6)"/>
<path style="fill-rule:evenodd;fill:rgb(0%,100%,0%);fill-opacity:1;stroke-width:0.1;stroke-linecap:butt;stroke-linejoin:miter;stroke:rgb(0%,0%,0%);stroke-opacity:1;stroke-miterlimit:10;" d="M 7.680078 8.959961 L 15.630078 8.959961 L 15.630078 10.159961 L 7.680078 10.159961 Z " transform="matrix(20,0,0,20,-152,-6)"/>
<path style="fill-rule:evenodd;fill:rgb(0%,100%,0%);fill-opacity:1;stroke-width:0.1;stroke-linecap:butt;stroke-linejoin:miter;stroke:rgb(0%,0%,0%);stroke-opacity:1;stroke-miterlimit:10;" d="M 7.65 7.65 L 15.6 7.65 L 15.6 8.85 L 7.65 8.85 Z " transform="matrix(20,0,0,20,-152,-6)"/>
<path style="fill-rule:evenodd;fill:rgb(0%,100%,0%);fill-opacity:1;stroke-width:0.1;stroke-linecap:butt;stroke-linejoin:miter;stroke:rgb(0%,0%,0%);stroke-opacity:1;stroke-miterlimit:10;" d="M 7.669922 6.340039 L 15.619922 6.340039 L 15.619922 7.540039 L 7.669922 7.540039 Z " transform="matrix(20,0,0,20,-152,-6)"/>
</g>
</svg>
